# xmcd CD database file
#
# Track frame offsets:
#	150
#	22827
#	43611
#	66181
#
# Disc length: 1155 seconds
#
# Revision: 0
# Processed by: cddbd v1.5PL3 Copyright (c) Steve Scherf et al.
# Submitted via: CDex 1.51
#
DISCID=29048104
DTITLE=X.Y.Z.→A - Labyrinth
DYEAR=1900
DGENRE=Heavy Metal
TTITLE0=Labyrinth
TTITLE1=Xyz
TTITLE2=Labyrinth (Karaoke)
TTITLE3=Xyz (Karaoke)
EXTD=
EXTT0=
EXTT1=
EXTT2=
EXTT3=
PLAYORDER=
